<?xml version="1.0" encoding="UTF-8"?>
<svg width="23px" height="20px" viewBox="0 0 23 20" version="1.1" xmlns="http://www.w3.org/2000/svg" xmlns:xlink="http://www.w3.org/1999/xlink">
    <title>Combined Shape</title>
    <defs>
        <path d="M1408.90909,429 C1407.84955,429 1407,429.85406 1407,430.919237 L1407,442.434657 C1407,443.490237 1407.84955,444.353894 1408.90909,444.353894 L1413.68182,444.353894 L1413.68182,446.273131 L1421.31818,446.273131 L1421.31818,444.353894 L1426.09091,444.353894 C1427.14091,444.353894 1427.99045,443.490237 1427.99045,442.434657 L1428,430.919237 C1428,429.85406 1427.14091,429 1426.09091,429 L1408.90909,429 Z M1408.90909,442.434657 L1408.90909,430.919237 L1426.09091,430.919237 L1426.09091,442.434657 L1408.90909,442.434657 Z M1420.29142,434.342275 L1423.13958,436.527752 L1420.29142,438.713228 L1420.291,437.636 L1414.12,437.636 L1414.1204,438.713228 L1411.27224,436.527752 L1414.1204,434.342275 L1414.12,435.717 L1420.291,435.717 L1420.29142,434.342275 Z" id="path-1"></path>
        <filter x="-9.5%" y="-5.8%" width="119.0%" height="123.2%" filterUnits="objectBoundingBox" id="filter-2">
            <feOffset dx="0" dy="1" in="SourceAlpha" result="shadowOffsetOuter1"></feOffset>
            <feGaussianBlur stdDeviation="0.5" in="shadowOffsetOuter1" result="shadowBlurOuter1"></feGaussianBlur>
            <feColorMatrix values="0 0 0 0 0   0 0 0 0 0   0 0 0 0 0  0 0 0 0.789226399 0" type="matrix" in="shadowBlurOuter1"></feColorMatrix>
        </filter>
    </defs>
    <g id="Page-1" stroke="none" stroke-width="1" fill="none" fill-rule="evenodd">
        <g id="game_one_3_5" transform="translate(-1406.000000, -429.000000)">
            <g id="Combined-Shape">
                <use fill="black" fill-opacity="1" filter="url(#filter-2)" xlink:href="#path-1"></use>
                <use fill="#EFB807" fill-rule="evenodd" xlink:href="#path-1"></use>
            </g>
        </g>
    </g>
</svg>